<?xml version="1.0" encoding="UTF-8" standalone="no"?>
<!-- Generator: Adobe Illustrator 22.0.0, SVG Export Plug-In . SVG Version: 6.00 Build 0)  -->

<svg
   version="1.1"
   id="Layer_1"
   x="0px"
   y="0px"
   viewBox="0 0 300 200"
   style="enable-background:new 0 0 300 200;"
   xml:space="preserve"
   sodipodi:docname="BASH.svg"
   inkscape:version="1.3.2 (091e20ef0f, 2023-11-25, custom)"
   xmlns:inkscape="http://www.inkscape.org/namespaces/inkscape"
   xmlns:sodipodi="http://sodipodi.sourceforge.net/DTD/sodipodi-0.dtd"
   xmlns="http://www.w3.org/2000/svg"
   xmlns:svg="http://www.w3.org/2000/svg"><defs
   id="defs30" /><sodipodi:namedview
   id="namedview30"
   pagecolor="#505050"
   bordercolor="#eeeeee"
   borderopacity="1"
   inkscape:showpageshadow="0"
   inkscape:pageopacity="0"
   inkscape:pagecheckerboard="0"
   inkscape:deskcolor="#505050"
   inkscape:zoom="3.98"
   inkscape:cx="127.38693"
   inkscape:cy="109.04523"
   inkscape:window-width="1920"
   inkscape:window-height="1002"
   inkscape:window-x="0"
   inkscape:window-y="0"
   inkscape:window-maximized="1"
   inkscape:current-layer="g30" />
<style
   type="text/css"
   id="style1">
	.st0{fill:#FFFFFF;}
	.st1{fill:#2A3238;}
	.st2{fill:#4DA925;}
</style>
<g
   id="g30">
	<g
   id="g6"
   transform="matrix(1.2054973,0,0,1.1517396,80.21092,-48.434927)">
		<g
   id="g1">
			<path
   class="st0"
   d="M 105.9,66.3 68.7,44.2 c -4.4,-2.6 -9.9,-2.6 -14.4,0 L 17.1,66.3 c -4.4,2.6 -7.2,7.5 -7.2,12.8 v 44.2 c 0,5.3 2.7,10.1 7.2,12.8 l 37.2,22.1 c 2.2,1.3 4.7,2 7.2,2 2.5,0 5,-0.7 7.2,-2 l 37.2,-22.1 c 4.4,-2.6 7.2,-7.5 7.2,-12.8 V 79 c 0,-5.2 -2.7,-10.1 -7.2,-12.7 z"
   id="path1" />
		</g>
		<g
   id="g3">
			<g
   id="g2">
				<path
   class="st1"
   d="M 105.9,66.3 68.7,44.2 c -2.2,-1.3 -4.7,-2 -7.2,-2 -2.5,0 -5,0.7 -7.2,2 L 17.1,66.3 c -4.4,2.6 -7.2,7.5 -7.2,12.8 v 44.2 c 0,5.3 2.7,10.1 7.2,12.8 l 37.2,22.1 c 2.2,1.3 4.7,2 7.2,2 2.5,0 5,-0.7 7.2,-2 l 37.2,-22.1 c 4.4,-2.6 7.2,-7.5 7.2,-12.8 V 79 c 0,-5.2 -2.7,-10.1 -7.2,-12.7 z M 55.6,155.8 18.4,133.7 c -3.6,-2.2 -5.9,-6.2 -5.9,-10.5 V 79 c 0,-4.3 2.3,-8.4 5.9,-10.5 L 55.6,46.4 c 1.8,-1.1 3.8,-1.6 5.9,-1.6 2.1,0 4.1,0.6 5.9,1.6 l 37.2,22.1 c 3.1,1.8 5.1,5 5.7,8.5 -1.2,-2.6 -4,-3.4 -7.3,-1.5 L 67.9,97.3 c -4.4,2.6 -7.6,5.4 -7.6,10.7 v 43.4 c 0,3.2 1.3,5.2 3.2,5.8 -0.6,0.1 -1.3,0.2 -2,0.2 -2,0.1 -4.1,-0.5 -5.9,-1.6 z"
   id="path2" />
			</g>
		</g>
		<g
   id="g4">
			<path
   class="st2"
   d="m 96.2,127.5 -9.3,5.5 c -0.2,0.1 -0.4,0.3 -0.4,0.6 v 2.4 c 0,0.3 0.2,0.4 0.4,0.3 l 9.4,-5.7 c 0.2,-0.1 0.3,-0.4 0.3,-0.7 v -2.1 c 0,-0.3 -0.2,-0.4 -0.4,-0.3 z"
   id="path3" />
		</g>
		<g
   id="g5">
			<path
   class="st0"
   d="m 76.4,107.1 c 0.3,-0.2 0.5,0 0.6,0.4 v 3.2 c 1.3,-0.5 2.5,-0.7 3.6,-0.4 0.2,0.1 0.3,0.4 0.2,0.7 l -0.7,2.8 c -0.1,0.2 -0.2,0.4 -0.3,0.6 -0.1,0.1 -0.1,0.1 -0.2,0.1 -0.1,0 -0.2,0.1 -0.3,0 -0.5,-0.1 -1.6,-0.4 -3.4,0.6 -1.9,1 -2.6,2.6 -2.5,3.8 0,1.5 0.8,1.9 3.3,1.9 3.4,0.1 4.9,1.6 5,5 0,3.4 -1.8,7.1 -4.6,9.3 l 0.1,3.2 c 0,0.4 -0.2,0.8 -0.5,1 l -1.9,1.1 c -0.3,0.2 -0.5,0 -0.6,-0.4 v -3.1 c -1.6,0.7 -3.2,0.8 -4.3,0.4 -0.2,-0.1 -0.3,-0.4 -0.2,-0.7 l 0.7,-2.9 c 0.1,-0.2 0.2,-0.5 0.3,-0.6 0.1,-0.1 0.1,-0.1 0.2,-0.1 0.1,-0.1 0.2,-0.1 0.3,0 1.1,0.4 2.6,0.2 3.9,-0.5 1.8,-0.9 2.9,-2.7 2.9,-4.5 0,-1.6 -0.9,-2.3 -3,-2.3 -2.7,0 -5.2,-0.5 -5.3,-4.5 0,-3.3 1.7,-6.7 4.4,-8.8 v -3.2 c 0,-0.4 0.2,-0.8 0.5,-1 z"
   id="path4" />
		</g>
	</g>
	<g
   id="g9"
   transform="matrix(1.2054973,0,0,1.1517396,-98.082135,53.482861)">
		<path
   class="st1"
   d="m 161.2,102.8 c -0.9,-1.1 -2,-2.1 -3.3,-2.9 -0.2,-0.1 -0.3,-0.2 -0.5,-0.3 1,-0.7 1.9,-1.5 2.7,-2.4 0.8,-1 1.5,-2.1 2,-3.3 0.5,-1.2 0.7,-2.6 0.8,-4 0,-2.5 -0.5,-4.7 -1.6,-6.6 -1.1,-1.8 -2.5,-3.4 -4.3,-4.5 -1.7,-1.1 -3.7,-2 -5.9,-2.5 -2.1,-0.5 -4.3,-0.8 -6.5,-0.8 h -14.9 c -1,0 -1.9,0.8 -1.9,1.8 v 47.6 c 0,1 0.8,1.8 1.9,1.8 h 16.1 c 2.3,0 4.6,-0.4 6.8,-1 2.2,-0.7 4.2,-1.7 5.9,-2.9 1.7,-1.3 3.2,-2.9 4.2,-4.9 1.1,-2 1.6,-4.2 1.5,-6.7 0,-1.6 -0.3,-3.1 -0.8,-4.5 -0.5,-1.5 -1.2,-2.7 -2.2,-3.9 z m -9.1,-10.4 c -0.4,0.7 -1,1.3 -1.7,1.8 -0.7,0.5 -1.6,0.9 -2.5,1.2 -1,0.3 -2,0.4 -3,0.5 h -7 V 84.3 h 6.8 c 1.1,0 2.2,0.2 3.2,0.4 1,0.2 1.8,0.6 2.5,1.1 0.7,0.4 1.2,1 1.6,1.7 0.4,0.7 0.6,1.5 0.6,2.5 0.1,0.9 -0.1,1.7 -0.5,2.4 z M 138,104.5 h 8.2 c 1.2,0 2.2,0.2 3.2,0.6 0.9,0.3 1.8,0.8 2.4,1.3 0.7,0.6 1.2,1.2 1.6,2.1 0.4,0.8 0.6,1.8 0.5,2.9 0,1 -0.2,2 -0.6,2.8 -0.4,0.8 -1,1.5 -1.7,2.1 -0.7,0.6 -1.6,1 -2.6,1.4 -1,0.3 -2.1,0.5 -3.2,0.5 H 138 Z"
   id="path6" />
		<path
   class="st1"
   d="m 192.2,76.8 c -0.2,-0.7 -1,-1.2 -1.8,-1.2 h -5.3 c -0.8,0 -1.5,0.5 -1.8,1.2 l -16.2,47.6 c -0.2,0.5 -0.1,1.1 0.3,1.6 0.4,0.5 0.9,0.7 1.5,0.7 h 6.4 c 0.8,0 1.6,-0.5 1.8,-1.3 l 3.6,-11.1 h 13.9 l 3.6,11.1 c 0.2,0.8 1,1.3 1.8,1.3 h 6.3 c 0.6,0 1.2,-0.3 1.5,-0.7 0.4,-0.5 0.5,-1.1 0.3,-1.6 z m -0.4,28.7 h -8.2 l 4.1,-12.8 z"
   id="path7" />
		<path
   class="st1"
   d="m 246.3,104.7 c -0.9,-1.1 -1.9,-2.1 -3,-2.9 -1.1,-0.8 -2.3,-1.6 -3.5,-2.2 -1.2,-0.6 -2.5,-1.2 -3.9,-1.7 -1.3,-0.5 -2.6,-0.9 -3.9,-1.3 -1.1,-0.3 -2.3,-0.7 -3.5,-1.1 -1.1,-0.4 -2.2,-0.9 -3.2,-1.5 -0.9,-0.5 -1.6,-1.2 -2.2,-1.9 -0.5,-0.7 -0.7,-1.5 -0.8,-2.4 0,-1 0.2,-1.8 0.6,-2.5 0.4,-0.7 1,-1.3 1.6,-1.8 0.7,-0.5 1.6,-0.9 2.5,-1.2 2.2,-0.6 4.6,-0.5 6.4,0.1 1,0.4 1.8,0.9 2.5,1.5 0.7,0.6 1.3,1.4 1.7,2.3 0.4,1 0.8,2 0.9,3.2 0.1,0.9 0.9,1.6 1.9,1.6 h 6.5 c 0.5,0 1,-0.2 1.3,-0.5 0.4,-0.3 0.5,-0.8 0.5,-1.3 -0.1,-2.4 -0.6,-4.7 -1.7,-6.7 -1.1,-2 -2.5,-3.7 -4.2,-5.1 -1.7,-1.4 -3.7,-2.5 -5.9,-3.2 -4.2,-1.4 -8.9,-1.5 -13.4,-0.2 -2.2,0.6 -4.1,1.6 -5.8,2.8 -1.7,1.3 -3.2,2.8 -4.2,4.6 -1.1,1.9 -1.7,4 -1.7,6.4 0,2.4 0.6,4.5 1.7,6.3 1.1,1.7 2.5,3.2 4.1,4.4 1.6,1.2 3.4,2.2 5.4,3 1.9,0.8 3.7,1.5 5.6,2 1.2,0.4 2.4,0.8 3.7,1.2 1.2,0.4 2.3,0.9 3.2,1.5 0.9,0.6 1.6,1.2 2.2,2 0.5,0.7 0.7,1.6 0.7,2.7 0,1 -0.2,1.8 -0.6,2.5 -0.5,0.7 -1,1.3 -1.8,1.8 -0.8,0.5 -1.6,0.9 -2.6,1.1 -2.4,0.6 -4.9,0.5 -6.9,-0.1 -1.1,-0.3 -2,-0.8 -2.9,-1.5 -0.8,-0.6 -1.5,-1.4 -2,-2.4 -0.5,-0.9 -0.9,-2.1 -1.1,-3.3 -0.1,-0.9 -0.9,-1.6 -1.9,-1.6 h -6.5 c -0.5,0 -1,0.2 -1.4,0.5 -0.4,0.3 -0.5,0.8 -0.5,1.3 0.1,2.6 0.7,4.9 1.9,6.9 1.2,2 2.7,3.7 4.6,5.1 1.8,1.4 4,2.4 6.3,3.1 2.3,0.7 4.7,1.1 7.1,1.1 2.2,0 4.3,-0.3 6.5,-0.9 2.2,-0.6 4.2,-1.5 5.9,-2.6 1.8,-1.2 3.3,-2.7 4.4,-4.5 1.2,-1.9 1.8,-4.1 1.8,-6.5 0,-1.6 -0.2,-3.1 -0.7,-4.5 -0.1,-1.3 -0.8,-2.5 -1.7,-3.6 z"
   id="path8" />
		<path
   class="st1"
   d="m 288.1,75.5 h -6 c -1,0 -1.9,0.8 -1.9,1.8 V 96 H 263.4 V 77.3 c 0,-1 -0.8,-1.8 -1.9,-1.8 h -6 c -1,0 -1.9,0.8 -1.9,1.8 v 47.6 c 0,1 0.8,1.8 1.9,1.8 h 6 c 1,0 1.9,-0.8 1.9,-1.8 v -20.2 h 16.8 v 20.2 c 0,1 0.8,1.8 1.9,1.8 h 6 c 1,0 1.9,-0.8 1.9,-1.8 V 77.3 c -0.1,-1 -0.9,-1.8 -1.9,-1.8 z"
   id="path9" />
	</g>
	
</g>
</svg>
