<?xml version="1.0" encoding="UTF-8" standalone="no"?>
<svg
   viewBox="0 0 272.96 114.01"
   version="1.1"
   id="svg4"
   sodipodi:docname="GIT.svg"
   inkscape:version="1.3.2 (091e20ef0f, 2023-11-25, custom)"
   xmlns:inkscape="http://www.inkscape.org/namespaces/inkscape"
   xmlns:sodipodi="http://sodipodi.sourceforge.net/DTD/sodipodi-0.dtd"
   xmlns="http://www.w3.org/2000/svg"
   xmlns:svg="http://www.w3.org/2000/svg">
  <defs
     id="defs4" />
  <sodipodi:namedview
     id="namedview4"
     pagecolor="#505050"
     bordercolor="#eeeeee"
     borderopacity="1"
     inkscape:showpageshadow="0"
     inkscape:pageopacity="0"
     inkscape:pagecheckerboard="0"
     inkscape:deskcolor="#505050"
     inkscape:zoom="3.4594579"
     inkscape:cx="100.88286"
     inkscape:cy="51.74221"
     inkscape:window-width="1920"
     inkscape:window-height="1002"
     inkscape:window-x="0"
     inkscape:window-y="0"
     inkscape:window-maximized="1"
     inkscape:current-layer="svg4" />
  <path
     fill="#413000"
     d="m 120.63848,85.998826 c -5.985,0 -10.442,2.9389 -10.442,10.012 0,5.329104 2.9375,9.028404 10.12,9.028404 6.0875,0 10.222,-3.5869 10.222,-9.248504 0,-6.416 -3.7,-9.7915 -9.9,-9.7915 z m -11.97,49.940004 c -1.4162,1.7382 -2.8275,3.585 -2.8275,5.7646 0,4.3482 5.545,5.6568 13.162,5.6568 6.31,0 14.905,-0.44188 14.905,-6.3085 0,-3.4869 -4.135,-3.7028 -9.36,-4.0304 l -15.88,-1.0825 z m 32.201,-49.611004 c 1.955,2.5029 4.025,5.9848 4.025,10.989 0,12.075004 -9.465,19.146004 -23.169,19.146004 -3.485,0 -6.64,-0.43412 -8.5962,-0.97712 l -3.5912,5.7648 10.66,0.65125 c 18.822,1.1992 29.915,1.7442 29.915,16.208 0,12.514 -10.985,19.581 -29.915,19.581 -19.69,0 -27.196004,-5.0049 -27.196004,-13.598 0,-4.8975 2.1762,-7.5025 5.9838,-11.098 -3.5912,-1.518 -4.7862,-4.2362 -4.7862,-7.1748 0,-2.395 1.195,-4.5702 3.1562,-6.6386 1.9575,-2.065 4.132504,-4.1348 6.743804,-6.5274 -5.330004,-2.6104 -9.356204,-8.2676 -9.356204,-16.319004 0,-12.509 8.268804,-21.1 24.910004,-21.1 4.6788,0 7.5088,0.43062 10.011,1.0874 h 21.215 v 9.2446 l -10.01,0.76175"
     id="path1" />
  <path
     fill="#413000"
     d="m 170.02848,66.558826 c -6.2025,0 -9.7912,-3.5932 -9.7912,-9.7964 0,-6.1954 3.5888,-9.5704 9.7912,-9.5704 6.31,0 9.9,3.375 9.9,9.5704 0,6.2031 -3.59,9.7964 -9.9,9.7964 z m -14.036,65.376004 v -8.5899 l 5.55,-0.75925 c 1.5238,-0.22075 1.74,-0.5445 1.74,-2.1802 V 88.422476 c 0,-1.1942 -0.325,-1.959 -1.4162,-2.2828 l -5.8738,-2.0688 1.1962,-8.8086 h 22.521 v 45.144004 c 0,1.7438 0.105,1.9595 1.7412,2.1802 l 5.5488,0.75925 v 8.5899 h -31.008"
     id="path2" />
  <path
     fill="#413000"
     d="m 230.01848,127.71883 c -4.68,2.2818 -11.532,4.3491 -17.736,4.3491 -12.945,0 -17.839,-5.2168 -17.839,-17.515 V 86.052926 c 0,-0.65138 0,-1.0884 -0.87375,-1.0884 h -7.6138 v -9.6816 c 9.5762,-1.0908 13.381,-5.8784 14.578,-17.736 h 10.336 v 15.453 c 0,0.75875 0,1.0874 0.87125,1.0874 h 15.338 v 10.877 h -16.209 v 25.999004 c 0,6.4194 1.525,8.9194 7.3962,8.9194 3.05,0 6.2012,-0.75925 8.8125,-1.7392 l 2.94,9.5761"
     id="path3" />
  <path
     fill="#f05133"
     d="m 184.81594,7.6155285 -49.745,-49.7389005 c -2.8622,-2.8648 -7.5082,-2.8648 -10.374,0 l -10.329,10.33 13.102,13.102 c 3.0459,-1.0284 6.5371,-0.33888 8.9639,2.0884 2.4394,2.4424 3.124,5.9634 2.0698,9.0195005 l 12.628,12.628 c 3.0551,-1.0528 6.58,-0.37262 9.0195,2.0712 3.4106,3.4095995 3.4106,8.9344995 0,12.3449995 -3.4111,3.4116 -8.936,3.4116 -12.349,0 -2.5645,-2.5665 -3.1988,-6.3345 -1.8999,-9.4941995 l -11.777,-11.777 -0.001,30.9909995 c 0.8315,0.41162 1.6162,0.961 2.3091,1.6509 3.4096,3.4092 3.4096,8.9331 0,12.348 -3.4106,3.4091 -8.938,3.4091 -12.345,0 -3.4101,-3.4146 -3.4101,-8.9385 0,-12.348 0.84275,-0.84125 1.8179,-1.478 2.8584,-1.9048 V -2.3523715 c -1.041,-0.425 -2.015,-1.057 -2.859,-1.905 -2.583,-2.581 -3.2051,-6.3720005 -1.8804,-9.5439005 l -12.916,-12.918 -34.106004,34.1050005 c -2.8657,2.8669995 -2.8657,7.5129995 0,10.3779995 l 49.742004,49.739 c 2.8638,2.8648 7.5082,2.8648 10.376,0 l 49.512,-49.504 c 2.8648,-2.8662 2.8648,-7.5136 0,-10.3789995"
     id="path4" />
</svg>
